<svg xmlns="http://www.w3.org/2000/svg" viewBox="0 0 512 512" role="img" aria-label="popocornana">
  <rect width="512" height="512" rx="96" fill="#fff8df"/>
  <circle cx="180" cy="178" r="62" fill="#ffd166"/>
  <circle cx="252" cy="142" r="58" fill="#ffe08a"/>
  <circle cx="322" cy="194" r="64" fill="#ffd166"/>
  <path d="M128 238h256l-42 194H170z" fill="#d43f3a"/>
  <path d="M162 250h46l18 168h-34zM246 250h46l-2 168h-34zM330 250h34l-36 168h-34z" fill="#fff3d8"/>
  <path d="M146 238h220" stroke="#812620" stroke-width="20" stroke-linecap="round"/>
  <path d="M278 176c40 20 72 56 82 104" fill="none" stroke="#4f8a38" stroke-width="20" stroke-linecap="round"/>
  <path d="M348 130c20 22 28 54 18 82-30-6-58-24-76-50 12-22 34-34 58-32z" fill="#6fba45"/>
  <text x="256" y="472" text-anchor="middle" font-family="Arial, sans-serif" font-size="54" font-weight="700" fill="#812620">POP</text>
</svg>
